<?xml version="1.0" standalone="no"?>
<!DOCTYPE svg PUBLIC "-//W3C//DTD SVG 20010904//EN"
 "http://www.w3.org/TR/2001/REC-SVG-20010904/DTD/svg10.dtd">
<svg version="1.0" xmlns="http://www.w3.org/2000/svg"
 width="400.000000pt" height="400.000000pt" viewBox="0 0 400.000000 400.000000"
 preserveAspectRatio="xMidYMid meet">

<g transform="translate(0.000000,400.000000) scale(0.100000,-0.100000)"
fill="#000000" stroke="none">
<path d="M1204 2759 c-11 -18 8 -29 52 -29 25 0 60 -7 80 -15 52 -21 64 -60
64 -203 0 -117 1 -120 30 -157 16 -20 32 -46 36 -58 10 -32 64 -92 64 -71 0 9
-9 27 -20 41 -11 14 -20 38 -20 54 0 22 5 29 30 34 16 4 32 11 35 16 11 17 36
9 60 -18 l24 -28 1 157 c0 190 -1 188 105 188 219 0 348 -158 332 -405 -11
-157 -80 -270 -179 -295 -26 -7 -57 -23 -69 -37 -14 -14 -17 -22 -8 -18 19 7
72 -47 74 -77 1 -21 95 -159 244 -358 81 -109 164 -188 230 -218 54 -26 62
-27 241 -27 162 0 185 2 188 16 2 13 -9 17 -52 22 -108 11 -193 69 -327 224
-98 114 -359 437 -359 446 0 3 32 36 71 73 90 87 144 168 170 256 55 179 -16
366 -167 438 -103 51 -125 53 -536 55 -224 2 -390 -1 -394 -6z"/>
<path d="M1301 2356 c51 -51 86 -78 108 -82 35 -7 90 -63 121 -123 23 -47 25
-55 8 -45 -7 4 -3 -4 9 -17 30 -33 56 -140 55 -224 -3 -169 -3 -171 -12 -150
-7 15 -8 11 -8 -20 0 -22 -5 -60 -12 -85 -13 -49 -70 -163 -78 -156 -2 3 0 27
6 53 16 73 21 134 11 127 -5 -3 -9 0 -9 5 0 6 -3 11 -7 11 -5 0 -7 -31 -5 -70
4 -72 -21 -186 -38 -175 -5 3 -11 -3 -15 -14 -8 -25 -81 -93 -133 -122 -23
-13 -42 -27 -42 -31 0 -11 572 -10 589 1 23 15 2 31 -42 31 -61 0 -115 18
-131 43 -8 12 -17 41 -21 65 -6 38 -9 42 -35 42 -16 0 -39 4 -52 9 -22 8 -31
2 -85 -57 -33 -37 -76 -76 -94 -87 -25 -14 -16 -1 36 50 39 39 80 83 91 99 18
26 22 28 42 17 33 -18 93 -16 131 3 38 20 33 31 -18 47 -32 10 -45 8 -83 -9
l-46 -20 30 66 c16 36 31 73 33 81 2 9 8 36 15 61 7 25 11 86 10 135 -2 50 -3
107 -3 127 -1 20 -5 34 -9 32 -4 -3 -8 13 -8 35 0 23 -4 41 -9 41 -5 0 -17 21
-27 48 -10 26 -22 52 -26 57 -4 6 -27 35 -51 65 -24 30 -47 65 -51 78 -19 60
-93 113 -176 127 l-44 7 75 -76z"/>
<path d="M1543 2342 c-38 -18 -41 -37 -13 -67 24 -26 60 -23 86 6 16 18 16 20
-4 38 -12 10 -22 23 -22 30 0 14 -6 13 -47 -7z"/>
<path d="M1671 2295 c-17 -19 -38 -49 -47 -66 -20 -39 -31 -134 -16 -143 15
-9 77 68 90 113 19 61 26 131 14 131 -5 0 -24 -16 -41 -35z"/>
<path d="M1280 2265 c0 -21 90 -94 129 -105 69 -19 77 -10 35 40 -31 36 -75
61 -126 70 -28 5 -38 4 -38 -5z"/>
<path d="M1551 2224 c0 -11 3 -14 6 -6 3 7 2 16 -1 19 -3 4 -6 -2 -5 -13z"/>
<path d="M1346 2138 c31 -102 127 -225 198 -254 l39 -15 -7 41 c-15 92 -84
183 -175 230 -52 26 -64 26 -55 -2z"/>
<path d="M1480 2146 c0 -2 8 -10 18 -17 15 -13 16 -12 3 4 -13 16 -21 21 -21
13z"/>
<path d="M1718 2085 l-18 -24 33 10 c17 5 33 9 34 9 1 0 0 7 -3 15 -9 22 -26
18 -46 -10z"/>
<path d="M1328 2027 c-31 -9 -37 -14 -32 -32 3 -12 6 -30 8 -41 4 -23 27 -29
56 -14 18 10 26 8 48 -12 l27 -23 -23 26 c-13 15 -22 33 -21 40 4 19 -10 69
-19 68 -4 -1 -24 -6 -44 -12z"/>
<path d="M1649 2023 c-13 -16 -12 -17 4 -4 9 7 17 15 17 17 0 8 -8 3 -21 -13z"/>
<path d="M1780 2009 c-51 -23 -95 -61 -116 -101 -18 -35 -18 -38 6 -38 52 0
168 82 201 143 8 14 5 17 -18 17 -15 0 -48 -10 -73 -21z"/>
<path d="M1310 1893 c0 -7 -12 -16 -26 -19 -18 -5 -23 -11 -18 -23 3 -9 9 -24
11 -33 3 -10 11 -18 18 -18 16 0 45 33 45 51 0 18 -29 59 -30 42z"/>
<path d="M1766 1885 c-16 -12 -17 -15 -4 -15 9 0 18 7 22 15 7 18 6 18 -18 0z"/>
<path d="M1801 1874 c-17 -21 -18 -29 -8 -45 18 -29 38 -31 58 -8 24 27 24 25
-5 54 l-25 25 -20 -26z"/>
<path d="M1430 1765 c13 -14 26 -25 28 -25 3 0 -5 11 -18 25 -13 14 -26 25
-28 25 -3 0 5 -11 18 -25z"/>
<path d="M1649 1763 c-13 -16 -12 -17 4 -4 16 13 21 21 13 21 -2 0 -10 -8 -17
-17z"/>
<path d="M1294 1713 c2 -10 5 -18 7 -17 41 10 50 17 38 25 -24 15 -47 10 -45
-8z"/>
<path d="M1431 1697 c2 -1 15 -11 29 -22 l25 -20 -19 23 c-11 12 -24 22 -29
22 -6 0 -8 -1 -6 -3z"/>
<path d="M1684 1661 c-47 -29 -47 -36 -1 -57 64 -29 136 -25 182 11 l38 28
-59 18 c-76 24 -121 24 -160 0z"/>
<path d="M1327 1569 c15 -28 43 -63 63 -77 19 -14 41 -33 49 -41 11 -14 12
-13 6 9 -15 56 -52 116 -84 137 -56 38 -66 30 -34 -28z"/>
</g>
</svg>
